<svg width="15" height="15" viewBox="0 0 15 15" fill="none" xmlns="http://www.w3.org/2000/svg">
<path fill-rule="evenodd" clip-rule="evenodd" d="M2.55542 9.59128C4.55359 11.4843 7.71033 11.4015 9.6062 9.40647C11.502 7.41147 11.4192 4.2596 9.42102 2.36657C7.42273 0.473532 4.26599 0.556387 2.37024 2.55138C0.474365 4.54638 0.557129 7.69826 2.55542 9.59128ZM9.84094 10.5567C7.54004 12.492 4.10034 12.4324 1.86658 10.3162C-0.532593 8.04337 -0.63208 4.25904 1.64429 1.86364C3.92053 -0.531763 7.71069 -0.631143 10.1099 1.64167C12.3052 3.72149 12.575 7.06702 10.8607 9.45572L15 13.5166L13.9479 14.5857L9.84094 10.5567Z" fill="black"/>
</svg>
