<svg width="12" height="10" viewBox="0 0 12 10" fill="none" xmlns="http://www.w3.org/2000/svg">
<path d="M5.62134 6.27818L0.671594 1.32844C0.476331 1.13318 0.476331 0.816593 0.671594 0.621331C0.866856 0.426069 1.18344 0.426068 1.3787 0.621331L5.97489 5.21752L10.5711 0.621331C10.7664 0.426068 11.0829 0.426069 11.2782 0.621331C11.4735 0.816593 11.4735 1.13318 11.2782 1.32844L6.32845 6.27818C6.13318 6.47345 5.8166 6.47345 5.62134 6.27818Z" fill="black"/>
<path d="M5.6167 9.8033L0.666955 4.85355C0.471692 4.65829 0.471692 4.34171 0.666955 4.14645C0.862217 3.95118 1.1788 3.95118 1.37406 4.14645L5.97026 8.74264L10.5664 4.14645C10.7617 3.95118 11.0783 3.95118 11.2736 4.14645C11.4688 4.34171 11.4688 4.65829 11.2736 4.85355L6.32381 9.8033C6.12855 9.99856 5.81196 9.99856 5.6167 9.8033Z" fill="black"/>
</svg>
