<svg width="11" height="11" viewBox="0 0 11 11" fill="none" xmlns="http://www.w3.org/2000/svg">
<path fill-rule="evenodd" clip-rule="evenodd" d="M5.5 11C8.5376 11 11 8.53757 11 5.5C11 2.46243 8.5376 0 5.5 0C2.4624 0 0 2.46243 0 5.5C0 8.53757 2.4624 11 5.5 11ZM6.38257 2.2197C6.40417 2.17902 6.42053 2.13834 6.43164 2.09766C6.45508 2.01953 6.46289 1.92969 6.45508 1.82812C6.45508 1.72656 6.43945 1.63672 6.4082 1.55859C6.37695 1.47266 6.33008 1.40625 6.26758 1.35938C6.23645 1.32826 6.20032 1.30853 6.15906 1.30019C6.12781 1.29385 6.09375 1.29405 6.05664 1.30078C5.9707 1.31641 5.86914 1.37109 5.75195 1.46484C5.63477 1.55078 5.53711 1.66016 5.45898 1.79297C5.38086 1.91797 5.3457 2.05469 5.35352 2.20312C5.36133 2.34375 5.44727 2.47656 5.61133 2.60156C5.66602 2.64844 5.73633 2.66406 5.82227 2.64844C5.9082 2.63281 5.99023 2.60156 6.06836 2.55469C6.1543 2.5 6.22852 2.43359 6.29102 2.35547C6.328 2.31021 6.35852 2.26495 6.38257 2.2197ZM5.03711 4.47656C4.92773 4.50781 4.85352 4.54688 4.81445 4.59375C4.68945 4.75 4.57617 4.98828 4.47461 5.30859C4.38086 5.62891 4.30273 5.96875 4.24023 6.32812C4.17773 6.67969 4.13477 7.02734 4.11133 7.37109C4.08789 7.70703 4.08789 7.97266 4.11133 8.16797C4.11914 8.30078 4.1582 8.42969 4.22852 8.55469C4.29883 8.67188 4.38477 8.77734 4.48633 8.87109C4.53992 8.91322 4.59546 8.95065 4.65283 8.9834C4.71252 9.01744 4.77417 9.04642 4.83789 9.07031C4.9707 9.125 5.10352 9.14844 5.23633 9.14062C5.40039 9.13281 5.61133 9.03125 5.86914 8.83594C6.13477 8.64062 6.4043 8.40625 6.67773 8.13281C6.95117 7.85156 7.20898 7.5625 7.45117 7.26562C7.69336 6.96094 7.87695 6.69922 8.00195 6.48047C8.05664 6.38672 8.08008 6.30469 8.07227 6.23438C8.07227 6.16406 8.04883 6.11328 8.00195 6.08203C7.96289 6.05078 7.9082 6.04688 7.83789 6.07031C7.77539 6.09375 7.71289 6.14453 7.65039 6.22266C7.61011 6.28162 7.56116 6.34859 7.50354 6.42355C7.41614 6.53735 7.30884 6.6696 7.18164 6.82031C6.9707 7.0625 6.74023 7.30469 6.49023 7.54688C6.24805 7.78125 6.00586 7.98438 5.76367 8.15625C5.5293 8.32812 5.33398 8.41406 5.17773 8.41406C5.12305 8.41406 5.07227 8.39844 5.02539 8.36719C4.97852 8.32812 4.93555 8.26172 4.89648 8.16797C4.85742 8.08984 4.8457 7.97656 4.86133 7.82812C4.87695 7.67969 4.9043 7.52344 4.94336 7.35938C4.99023 7.1875 5.04102 7.01562 5.0957 6.84375C5.15039 6.66406 5.19727 6.50391 5.23633 6.36328C5.25696 6.28886 5.28308 6.20351 5.3147 6.10719C5.3429 6.02153 5.37537 5.9272 5.41211 5.82422C5.49023 5.59766 5.56445 5.37891 5.63477 5.16797C5.68811 5.00784 5.73474 4.86346 5.77466 4.73483C5.78735 4.69403 5.79932 4.65482 5.81055 4.61719C5.85742 4.46094 5.87695 4.37891 5.86914 4.37109C5.85352 4.36328 5.79492 4.36328 5.69336 4.37109C5.59961 4.37109 5.49414 4.38281 5.37695 4.40625C5.31006 4.41518 5.24438 4.42665 5.17993 4.44067C5.13159 4.4512 5.08398 4.46317 5.03711 4.47656Z" fill="white"/>
</svg>
