<svg width="11" height="11" viewBox="0 0 11 11" fill="none" xmlns="http://www.w3.org/2000/svg">
<path fill-rule="evenodd" clip-rule="evenodd" d="M5.5 11C8.53757 11 11 8.53757 11 5.5C11 2.46243 8.53757 0 5.5 0C2.46243 0 0 2.46243 0 5.5C0 8.53757 2.46243 11 5.5 11ZM4.15435 8.08783C4.0437 8.01615 3.962 7.92369 3.9206 7.83356C3.91207 7.82226 3.90412 7.81031 3.89684 7.79773L2.04595 4.59186C1.95136 4.42801 2.00748 4.21851 2.17132 4.12391C2.33516 4.02931 2.54466 4.08544 2.63925 4.24929L4.44874 7.38326L8.38336 2.13705C8.49685 1.98569 8.71162 1.95502 8.86292 2.06853C9.01429 2.18205 9.04499 2.39677 8.9315 2.54813L4.82074 8.02913C4.77558 8.08925 4.71453 8.13034 4.64779 8.1509C4.54308 8.22977 4.33885 8.20728 4.15435 8.08783Z" fill="white"/>
</svg>
