<svg width="11" height="10" viewBox="0 0 11 10" fill="none" xmlns="http://www.w3.org/2000/svg">
<path d="M2.98626 9.16457C3.04669 9.29612 3.16595 9.43107 3.32745 9.5357C3.59673 9.71004 3.89483 9.74286 4.04766 9.62775C4.14507 9.59774 4.23419 9.53777 4.3001 9.45002L10.3001 1.45002C10.4658 1.2291 10.421 0.9157 10.2 0.750004C9.97918 0.584324 9.6657 0.629094 9.50006 0.85001L3.75714 8.50731L1.11602 3.93302C0.97796 3.69387 0.672174 3.61193 0.433038 3.75C0.193903 3.88808 0.111993 4.19387 0.250055 4.43302L2.95159 9.11226C2.96221 9.13064 2.97381 9.14808 2.98626 9.16457Z" fill="black"/>
</svg>
